<?xml version="1.0" encoding="utf-8"?>
<!-- Generator: Adobe Illustrator 27.1.1, SVG Export Plug-In . SVG Version: 6.00 Build 0)  -->
<svg version="1.1" id="Layer_1" xmlns="http://www.w3.org/2000/svg" xmlns:xlink="http://www.w3.org/1999/xlink" x="0px" y="0px"
	 viewBox="0 0 350 350" style="enable-background:new 0 0 350 350;" xml:space="preserve">
<style type="text/css">
	.st0{fill:none;}
	.st1{fill-rule:evenodd;clip-rule:evenodd;fill:#010101;stroke:#010101;stroke-width:3;}
	.st2{fill:none;stroke:#010101;}
	.st3{fill:#FFD600;}
</style>
<path d="M283.9,309.6c74.3-60,85.7-169.3,25.7-243.5S140.3-19.6,66,40.5c-74.1,60-85.5,169.4-25.5,243.5S209.8,369.6,283.9,309.6
	L283.9,309.6z"/>
<rect x="32.1" y="32.1" class="st0" width="285.8" height="285.8"/>
<path id="path12548" class="st1" d="M298,171.1c-3.7,0.8-2.4-2.9-2-5.2c-0.5,2.7-2.3,5.2-3.7,7.7C294.5,169.7,296.2,171.5,298,171.1
	z M263.3,139.6c-1.6,6.9,0.9,11.5,11.9,11.7C275.7,143.6,275.5,136.3,263.3,139.6z"/>
<path id="path80344" class="st2" d="M152.5,129.4c-7-0.3-15-0.7-21.7,3.2 M136.1,213.4l-7.3,6.5l8-6.7v-10l2-3.5
	c1.8-3.1,2.4-6.7,1.8-10.2l-0.6-3.1l0,0c2.8,0,5.2-2,5.7-4.7l0.7-3.7l8-1.7l-4.8-5c0,0,14.3-5,17.5-5s-4.8-3.3-4.8-3.3l14.3-3.3
	l-8-1.7l17.5-5l-6.4-3.3l19.1-3.3c-2.1-1.1-4.3-3.9-6.4-3.3 M234.6,118.4c0.2,2.7,0.6,5.7,1.3,8.8 M250.3,125.4
	c2.5-11.6,2.1-19.6,0.4-24.3 M272,171.4l4,6.4 M252.3,113.1c3.9,0.6,7.1,2.4,11,3.1 M240.8,216.3c-16.6-3.1-23-11.6-27-21.3
	 M218.1,237c-25.5-37.9-43.5-34.6-60.5,16.7 M301.5,198.7c1.2-5.3-0.5-10.1-8.3-12.3 M293.6,200.5c1.6-6.8-0.6-8.8-5-9.3
	 M304.6,187.9L304.6,187.9L304.6,187.9c-1.6-5.9-14.4-8.5-28.7-10l-4,3.6c-12.9-6.6-29.1,14-37.3-10 M243.7,116.9l1.6,7.3l-3,2.8
	C244.1,126.7,243.3,120.4,243.7,116.9z M241.4,131v-3.9c4.8-0.9,3.2-2.5,3.7-3.9c-0.4-4-2.8-9.8,2.6-9.7c1.1-8.9,0.4-15.5-2.6-15.5
	c-5.8,0.4-5.9,4.9-5.5,9.7c-1.7,1.9-1,3.9-0.8,5.8c2.1-1.2,3.3,1.1,4.5,1.9l0.2,9.1 M235.3,278.7c-1.8-2-3.8-1.7-7.1-2.1
	 M236.9,276.2c-1.7-2.1-5.6-3.3-10.4-3 M220.1,295.6c-0.2-2.1-1-2.8-4.1-3.3 M224,292.5c-1.5-1.7-3.5-4.8-9.2-6.5 M217.8,271
	c-9.1,13.9-20.6,18.6-37.9,23.9"/>
<path class="st3" d="M90.9,126.7c-0.4,1.6-0.4,4.3,1.9,5.9l0.6,0.4l0.3-0.6c1.7-3.7,4-8.6,5.6-12c0.4,1.2,1.1,2.5,2.6,4l-0.4,0.8
	l0.5-0.2l0.3,1.2l0.6-1.6l0.3-0.1l-0.1-0.4c3.2-8.1,10.5-9.2,14.6-9.2c0.5,0,1.1,0,1.5,0.1c-3.7,2.3-3.1,4.9-3.1,5l0.1,0.5l0.5-0.1
	c0.7-0.1,1.5-0.1,2.1-0.1c3.8,0,6.6,1.3,8.1,3.8c0.8,1.2,1.2,2.6,1.2,3.3l-8.5,0.7l0.9,0.9c3.2,3.2,4.6,7.2,4.3,11.9
	c-0.2,1.6-0.4,2.9-0.8,4c-0.5-1.7-1.8-3.2-3.7-4.4c-2-1.3-4.1-1.9-4.2-1.9l-1.4-0.4l0.8,1.2c3,4.9,3.9,10.2,2.5,15.8
	c-0.6,2.7-1.7,4.8-2.4,5.9c-1.8-4.8-6.6-6.7-6.8-6.8l-1.3-0.5l0.5,1.3c2.6,5.9,2.4,12,1.9,15.9c-0.5,3.4-1.4,5.9-2,7.2
	c-1-2.9-6.3-5-7-5.2l-1.4-0.5l0.7,1.3c3.5,6.9,1.7,15.1,0.2,19.4c-0.5-0.3-1.2,0.1-1.6,0.8c-0.4,0.7-0.4,1.5,0.2,1.8
	c0.1,0.1,0.3,0.1,0.4,0.1c-0.1,0.3-0.2,0.4-0.2,0.4v0.1v0.1c-12,40.1-4.6,38.9,7.9,61.9c4.2,5.7,16.8,16.8,24.9,16.8
	c10.5,0,3,4.8,5.4,3.5c2.2,3.2,5,5.4,8.2,6.7c2.8,1.2,6.1,1.7,10.5,1.7l0,0c2.4,0,4.8-0.2,7.4-0.3c2.7-0.2,5.3-0.4,8.1-0.4
	c3.1,0,5.8,0.2,8.3,0.6c2.4,0.4,5,0.6,8.1,0.6c6.8,0,14.5-1.1,21.3-1.9c5.5-0.8,10.7-1.5,14.5-1.5c2.7,0,4.4,0.4,5.4,1.1
	c1.7,1.2,3.9,1.9,6.4,1.9c5.1,0,11-2.9,12.4-6.3c1.6-3.8-1.5-6.6-4.3-9.1c-0.6-0.5-1.2-1.1-1.8-1.7c-0.6-0.6-1.7-0.9-3.2-0.9
	c-5.8,0-17.5,4.4-18.8,4.9h-13.4c6.6-5,8.1-15.5,9.1-22.6c0.3-1.8,0.4-3.3,0.7-4.4c0.4-1.5,0.6-1.7,0.6-1.7l0,0
	c2.9,0,7.6-4.4,8.6-5.4c2.6-0.4,26.4-3.7,31.6-7.2c5-3.3,18.8-15,21.2-17l5.8,4.1l0.3-0.1c0.3-0.1,5.6-1.7,6.9-5.9
	c0.9-2.7-0.2-5.8-3.1-9.3c-2.7-3.3-6.1-5-10-5c-6.5,0-12,4.6-12.3,4.9l-13.1,10.4c0.8-1.6,1.9-3.9,3-6.2c1.2-2.6,2-4.6,2.7-6.2
	c0.7-1.9,0.9-2.8,0.8-3.4c2.1-0.8,13.5-2.1,23.8-3.1h0.4l5-10.6l-0.1-0.2c-2-7.3-5-13.4-8.7-18.3c-3-4.1-6.6-7.4-10.6-9.7
	c-6.8-4.1-12.8-4.5-14.7-4.5c-1.5-4.8-4.3-9.2-7.8-12.5c-3.3-3-6.9-4.8-9.8-4.8c-1.9,0-3.3,0.7-4.2,2c-3.3,4.9-1,13.6-0.3,16
	c-10.3,3.3-12.9,12.2-14.4,17.7c-0.4,1.1-0.6,2-0.9,2.7c-0.3,0.6-1.5,1.7-7.4,1.7c-5.3,0-12.2-0.9-17.2-1.5
	c-1.9-0.3-3.5-0.4-4.5-0.5c3.1-2.2,9.5-7.3,13.7-12.9l-0.9-0.7c0,0-0.8,1-2.8,1c-0.6,0-1.3-0.1-2-0.3c1-0.9,2.7-2.7,4.7-5.4
	c2.7-3.6,6.2-9.6,7.9-17.2l0.6-3.1l-1.7,2.7c-1.8,2.7-4.9,6.6-6.2,6.6H201c-0.1-0.6,1-3.1,1.9-5.3c2.8-6.3,7.1-15.9,5.4-24.4
	l-0.7-3.4l-0.5,3.5c-0.5,3.6-1.9,8.7-3.5,8.7c-0.2,0-0.3-0.1-0.4-0.1l-0.4-0.3l-0.1,0.1c-0.4-0.4-1.2-2.2-2.1-8.4
	c-0.6-4.2-0.5-7.4-0.4-10.3c0.2-4.4,0.4-8.2-2.3-13.8l-1.2-2.5l0.1,2.7c0.1,3.3-0.4,8.1-1.6,8.9c-0.4-0.4-0.9-2.8-1.3-5
	c-1.2-5.9-3.1-14.9-8.6-21.1l-2.4-2.7l1.4,3.3c1.3,3,3,8.4,2.1,10.1c-0.2,0.3-0.4,0.4-0.6,0.4h-0.1c-0.9,0-1.9-2.3-3-4.7
	c-2.2-5-5.6-12.5-13.4-14.8l-2.4-0.7l1.9,1.7c2,1.9,4.7,5.1,4.4,6.4c0,0.1-0.1,0.4-0.8,0.5c-0.2,0-0.3,0.1-0.4,0.1
	c-1.2,0-2.7-1.2-4.7-2.7c-3.5-2.8-8.9-7.1-18.1-7.9l-3.4-0.3l3.1,1.4c2.2,1.1,5.8,3.2,5.8,4.7c0,0.2,0,0.5-0.8,1.1
	c-0.4,0.3-0.8,0.4-1.2,0.4c-1.2,0-2.7-0.7-4.6-1.6c-3-1.4-7.1-3.5-12.6-3.5c-1.5,0-3.1,0.2-4.8,0.4l-2.8,0.5l2.8,0.6
	c2.7,0.6,5.8,1.8,5.9,2.6c0,0.2-0.2,0.4-0.4,0.5c-0.4,0.3-0.9,0.4-1.7,0.4c-1.3,0-3-0.4-5-0.8c-2.8-0.6-5.9-1.2-9.4-1.2
	c-3,0-5.7,0.5-8.1,1.7l-2.2,1.1l2.5,0.1c3.3,0.1,8.8,0.9,9.5,2.6c0.2,0.5-0.1,1.2-0.9,1.9c-2,2-4.8,2.3-7.9,2.7
	c-4.6,0.5-9.7,1.2-14,7.1l-1.2,1.3l1.8-0.6c0.1,0,6.4-2.3,9.5-2.3c1.1,0,1.2,0.3,1.3,0.3c0.1,0.1,0,0.4,0,0.4
	c-0.4,1.3-3.4,2.7-6.4,4.1c-4.9,2.2-10.4,4.8-11.3,9.3l-0.3,1.3l1.2-0.6c1.4-0.8,5.4-2.9,7.2-2.9c0.3,0,0.4,0.1,0.4,0.1
	s0.2,0.3-0.2,1c-0.7,1.8-2.5,2.9-4.5,4.2c-3.1,2-6.7,4.3-7.4,9.8l-0.2,1.6l1.2-1.1c1.7-1.6,3.9-3.3,4.7-3.4c0,0.2,0,0.4-0.3,1.2
	c-0.8,2.1-2.5,3.9-4.2,5.6c-2.1,2.1-4.3,4.3-4.3,7.4v1.9L87,122c0,0,1.9-2.7,4-2.7c0.2,0,0.4,0,0.4,0.1c-1.8,1.9-7,8.2-7.2,14.2
	l-0.1,2.9l1.2-2.7C86.7,131.1,89.3,126.7,90.9,126.7z"/>
</svg>
